PathFileType	4	(X/Y/Z)	 s03c0001.trc
DataRate	CameraRate	NumFrames	NumMarkers	Units	OrigDataRate	OrigDataStartFrame	OrigNumFrames
200	200	6	49	mm	200	1001	2000
Frame#	Time	racr			lacr			c7			jug			rlel			rdr			llel			ldr			s2			lic			ric			lasi			rasi			rpsi			lpsi			rgt			lgt			rth1			rth2			rth3			rth4			rlfc			rmfc			rsh1			rsh2			rsh3			rsh4			rlmal			rmmal			rcal			rtoe			rmt5			rmt1			lth1			lth2			lth4			lth3			llfc			lmfc			lsh1			lsh2			lsh3			lsh4			llmal			lmmal			lcal			ltoe			lmt1			lmt5			
		X1	Y1	Z1	X2	Y2	Z2	X3	Y3	Z3	X4	Y4	Z4	X5	Y5	Z5	X6	Y6	Z6	X7	Y7	Z7	X8	Y8	Z8	X9	Y9	Z9	X10	Y10	Z10	X11	Y11	Z11	X12	Y12	Z12	X13	Y13	Z13	X14	Y14	Z14	X15	Y15	Z15	X16	Y16	Z16	X17	Y17	Z17	X18	Y18	Z18	X19	Y19	Z19	X20	Y20	Z20	X21	Y21	Z21	X22	Y22	Z22	X23	Y23	Z23	X24	Y24	Z24	X25	Y25	Z25	X26	Y26	Z26	X27	Y27	Z27	X28	Y28	Z28	X29	Y29	Z29	X30	Y30	Z30	X31	Y31	Z31	X32	Y32	Z32	X33	Y33	Z33	X34	Y34	Z34	X35	Y35	Z35	X36	Y36	Z36	X37	Y37	Z37	X38	Y38	Z38	X39	Y39	Z39	X40	Y40	Z40	X41	Y41	Z41	X42	Y42	Z42	X43	Y43	Z43	X44	Y44	Z44	X45	Y45	Z45	X46	Y46	Z46	X47	Y47	Z47	X48	Y48	Z48	X49	Y49	Z49	
1001	5.0050	265.718071	1574.108084	581.169129	261.595437	1589.400967	199.589417	199.079793	1608.038009	393.184177	366.934555	1557.484783	392.281276	190.363632	1303.638439	692.006858	283.754696	1125.157225	889.097129	189.103691	1318.145041	92.996203	271.891505	1128.769713	-113.207497	161.839558	1068.030883	372.993717	299.384620	1166.219053	194.006563	290.813389	1152.541761	565.180795	360.486229	1104.102381	237.013947	360.500377	1100.785966	518.945232	163.351218	1108.594153	422.574218	167.697056	1117.069663	339.592596	271.600573	1009.195468	560.415244	285.633370	1015.519371	186.574070	284.127509	870.474720	575.748576	314.589030	786.849852	570.133481	304.283746	703.667349	555.549875	350.666984	792.220370	565.582890	298.112905	577.493563	523.879963	329.683879	556.802367	417.646131	243.390730	413.003914	551.952776	254.514251	323.858759	547.803463	219.152497	243.481840	542.068163	288.733551	320.435784	530.357292	209.020964	104.368668	530.893198	249.100863	121.919715	449.987231	165.274683	56.207106	483.295043	468.600957	90.763504	503.295489	353.529317	43.263896	563.461105	378.865758	80.848402	454.007414	297.111447	865.654392	173.839179	320.562018	782.541704	181.223484	356.614918	784.588792	183.330676	299.130854	698.036352	194.932123	313.100499	576.802312	219.803398	334.272034	558.837022	333.579303	253.298524	413.367003	184.223279	265.521494	329.126565	192.657434	230.255979	244.683583	196.192135	299.747509	324.917326	210.953976	221.002170	110.623757	205.958847	259.100048	124.947444	292.793120	172.587611	55.081573	257.999717	479.517023	92.457893	234.453200	389.189686	73.237017	286.043902	358.224236	50.621644	172.408963	
1002	5.0100	265.716865	1574.167101	581.200241	261.619171	1589.393845	199.581360	199.099902	1608.038242	393.192360	366.945123	1557.493010	392.281691	190.421044	1303.629643	691.981584	283.801663	1125.179842	889.112864	189.104226	1318.140217	92.995272	271.888682	1128.775865	-113.239322	161.839561	1068.030891	372.993715	299.415024	1166.220622	194.000990	290.826953	1152.556614	565.174870	360.501452	1104.095574	237.009371	360.515590	1100.794474	518.952167	163.367180	1108.609672	422.588206	167.705149	1117.091331	339.597663	271.620313	1009.198764	560.413066	285.660780	1015.520528	186.567025	284.147570	870.481629	575.753537	314.613416	786.850861	570.135451	304.282913	703.651504	555.551952	350.687007	792.236432	565.603644	298.130472	577.495497	523.890616	329.694904	556.795928	417.630641	243.394984	412.999577	551.959903	254.504736	323.846151	547.805918	219.149320	243.478096	542.063464	288.722053	320.456924	530.373518	209.032175	104.354855	530.903102	249.097508	121.907313	449.997581	165.306020	56.201956	483.294079	468.615157	90.770734	503.310761	353.548945	43.271049	563.450836	378.882140	80.845745	454.007248	297.143584	865.647032	173.844546	320.581211	782.538910	181.236972	356.632031	784.586579	183.333842	299.169059	698.045753	194.935599	313.132651	576.809881	219.814080	334.318195	558.859690	333.594137	253.319375	413.367072	184.222630	265.527780	329.132978	192.653133	230.272346	244.687312	196.204268	299.760544	324.911340	210.961191	220.983432	110.636235	205.968183	259.094166	124.953548	292.784510	172.585746	55.095119	258.008167	479.566650	92.471502	234.441839	389.189264	73.238533	286.044571	358.224065	50.609995	172.393753	
1003	5.0150	265.745015	1574.179046	581.180872	261.683083	1589.397673	199.571330	199.121557	1608.049462	393.197080	366.988732	1557.505122	392.252688	190.432989	1303.648487	691.974163	283.845197	1125.224106	889.119201	189.104918	1318.145294	92.988396	271.884068	1128.784522	-113.256994	161.890481	1068.033295	372.975662	299.445812	1166.211520	193.992463	290.857361	1152.544759	565.152991	360.561858	1104.098221	237.009313	360.524217	1100.795059	518.954128	163.392747	1108.613423	422.569983	167.728559	1117.082063	339.579753	271.636437	1009.207244	560.407690	285.691210	1015.516608	186.564723	284.169962	870.472667	575.747515	314.639002	786.852431	570.120450	304.294368	703.658752	555.544145	350.698025	792.228909	565.566318	298.157226	577.493629	523.891813	329.696695	556.788061	417.634963	243.398821	413.003629	551.953860	254.508451	323.858155	547.806405	219.142772	243.488949	542.077984	288.738255	320.459061	530.378554	209.044967	104.367672	530.897191	249.069739	121.898339	449.985535	165.302587	56.191336	483.297929	468.621747	90.764994	503.304527	353.537435	43.253875	563.450358	378.847838	80.853688	454.015723	297.186609	865.661709	173.848012	320.617382	782.545691	181.237246	356.679378	784.589771	183.346906	299.202300	698.044600	194.944073	313.133250	576.803825	219.800401	334.279909	558.837510	333.571589	253.319937	413.371929	184.212999	265.560686	329.131565	192.662279	230.256673	244.718995	196.168574	299.769719	324.918334	210.980608	220.997295	110.628348	205.964560	259.092202	124.955414	292.797352	172.591502	55.093891	258.003310	479.536625	92.434329	234.435900	389.204277	73.240109	286.041473	358.204581	50.610957	172.407099	
1004	5.0200	265.769687	1574.162678	581.161898	261.708070	1589.380083	199.545318	199.143871	1608.053814	393.178778	366.998938	1557.500828	392.253062	190.480139	1303.695276	691.939412	283.859393	1125.232997	889.112661	189.128973	1318.156807	92.973353	271.865848	1128.805931	-113.277731	161.910400	1068.031624	372.959283	299.471251	1166.211644	193.997258	290.871275	1152.536022	565.164134	360.567382	1104.091352	236.994591	360.549531	1100.784230	518.947342	163.419571	1108.613226	422.558566	167.771216	1117.081913	339.574332	271.644339	1009.209866	560.403461	285.722617	1015.523804	186.557045	284.179644	870.488334	575.756361	314.659542	786.844975	570.119649	304.336530	703.646393	555.543681	350.723027	792.230454	565.575285	298.177549	577.495358	523.891416	329.744208	556.795156	417.662327	243.410221	413.009120	551.964058	254.524990	323.854825	547.819429	219.142504	243.500052	542.070817	288.757934	320.438695	530.378099	209.018230	104.367141	530.891393	249.070697	121.929511	449.991803	165.302605	56.191357	483.297930	468.617959	90.763643	503.314191	353.521987	43.264422	563.449318	378.872940	80.843430	454.022068	297.220544	865.657903	173.842123	320.649000	782.554261	181.230412	356.708631	784.600113	183.344098	299.215249	698.039940	194.942105	313.121862	576.805122	219.800289	334.307890	558.857248	333.571569	253.351455	413.365503	184.218949	265.547661	329.127476	192.649375	230.278314	244.705320	196.157555	299.789252	324.922123	210.978898	221.006297	110.627336	205.963629	259.104197	124.956417	292.783773	172.582875	55.095639	258.000286	479.536467	92.444705	234.433035	389.185885	73.239519	286.042444	358.224151	50.621620	172.409020	
1005	5.0250	265.789258	1574.160166	581.151702	261.731894	1589.367787	199.525721	199.217225	1608.282584	393.134038	367.011115	1557.506092	392.244309	190.483104	1303.703915	691.937389	283.878238	1125.245051	889.108880	189.142601	1318.152145	92.962781	271.859129	1128.828284	-113.316513	161.910431	1068.044020	372.956278	299.481003	1166.209074	193.979066	290.872382	1152.554702	565.161795	360.614017	1104.095987	236.990512	360.558158	1100.784814	518.949304	163.444913	1108.616941	422.540112	167.805115	1117.087275	339.562061	271.659042	1009.208772	560.388388	285.759384	1015.521295	186.549001	284.194149	870.479885	575.756391	314.666874	786.846063	570.122881	304.343015	703.655592	555.551400	350.737577	792.239274	565.599365	298.189685	577.491406	523.913634	329.759979	556.791314	417.668522	243.430698	413.000243	551.975610	254.538075	323.845243	547.811103	219.145217	243.488173	542.078781	288.750961	320.430628	530.380665	209.025952	104.377067	530.908783	249.071015	121.926943	449.993655	165.274758	56.207198	483.295048	468.619786	90.771724	503.301507	353.568074	43.253849	563.457371	378.854595	80.856888	454.029603	297.235272	865.656256	173.843796	320.676181	782.554510	181.218773	356.709476	784.586860	183.344907	299.242823	698.034243	194.962046	313.168988	576.820570	219.822797	334.308116	558.844767	333.566474	253.356211	413.374992	184.206210	265.564393	329.132021	192.661650	230.306132	244.691247	196.151620	299.794646	324.926126	210.979809	221.001026	110.614178	205.964290	259.099002	124.971333	292.774173	172.596804	55.083758	257.994380	479.561824	92.449310	234.427025	389.189173	73.238468	286.044480	358.205628	50.610068	172.405678	
1006	5.0300	265.819205	1574.168450	581.154178	261.754875	1589.360015	199.511643	199.214105	1608.056344	393.144450	367.057443	1557.496920	392.237458	190.528268	1303.707065	691.915971	283.900484	1125.270204	889.123848	189.143558	1318.154800	92.960857	271.847321	1128.836840	-113.335409	161.961354	1068.046424	372.938223	299.533416	1166.218468	193.976578	290.891292	1152.551316	565.149156	360.628180	1104.094533	236.988889	360.586523	1100.791874	518.952258	163.468278	1108.613296	422.542944	167.829273	1117.083644	339.544227	271.669762	1009.213184	560.388349	285.779999	1015.521751	186.557464	284.205278	870.484755	575.743174	314.668104	786.860692	570.141119	304.345760	703.659058	555.560021	350.755326	792.236412	565.593527	298.210072	577.489033	523.924441	329.784749	556.793685	417.681745	243.430877	413.002355	551.980524	254.536670	323.849109	547.834617	219.155113	243.491182	542.090940	288.747048	320.441828	530.387547	209.025290	104.366271	530.906481	249.098675	121.919790	450.003189	165.302642	56.191403	483.297933	468.613298	90.759321	503.318011	353.508741	43.253122	563.473054	378.867797	80.853029	454.021891	297.261938	865.663053	173.819727	320.701606	782.539315	181.242767	356.750190	784.599560	183.352490	299.256398	698.049343	194.954884	313.167302	576.816534	219.807294	334.342387	558.861420	333.572435	253.363258	413.376273	184.200566	265.584559	329.119682	192.668322	230.309026	244.688884	196.159828	299.787602	324.921455	210.963174	221.007398	110.626782	205.960060	259.104894	124.959694	292.771100	172.593982	55.108420	258.003561	479.555417	92.454163	234.441855	389.208693	73.253238	286.052347	358.226037	50.598013	172.403498	
